<?xml version="1.0" encoding="UTF-8"?>
<svg width="36px" height="29px" viewBox="0 0 36 29" version="1.1" xmlns="http://www.w3.org/2000/svg" xmlns:xlink="http://www.w3.org/1999/xlink">
    <!-- Generator: Sketch 53.2 (72643) - https://sketchapp.com -->
    <title>hands-heart-regular copy 2</title>
    <desc>Created with Sketch.</desc>
    <g id="Mobile" stroke="none" stroke-width="1" fill="none" fill-rule="evenodd">
        <g id="Client-/-services" transform="translate(-35.000000, -370.000000)" fill="#FFFFFF" fill-rule="nonzero">
            <g id="hands-heart-regular-copy-2" transform="translate(35.000000, 370.000000)">
                <path d="M16.8048742,13.9932472 C17.1591939,14.3613373 17.581003,14.4972475 17.9971879,14.4972475 C18.4077488,14.5029105 18.835182,14.3613373 19.1895016,13.9932472 L24.7405093,8.21706304 C26.4333698,6.45589318 26.7876894,3.11476707 24.403062,1.064788 C22.2433995,-0.792651594 19.39197,0.0567872464 17.9971879,1.5064962 C16.6024059,0.0567872464 13.7509764,-0.792651594 11.596938,1.064788 C9.21231058,3.11476707 9.56663021,6.45589318 11.2594907,8.21706304 L16.8048742,13.9932472 Z M13.3010467,3.14874463 C14.0940478,2.46919355 15.3313545,2.63908132 16.0737385,3.41490213 L17.9971879,5.41391487 L19.9150133,3.4092392 C20.6573973,2.6334184 21.9003281,2.46353063 22.687705,3.1430817 C23.750664,4.05481272 23.5706921,5.54416216 22.8395563,6.30865711 L17.9971879,11.3543238 L13.1548196,6.30865711 C12.4180597,5.54982508 12.2437119,4.06047565 13.3010467,3.14874463 Z M32.2205905,5.44789242 C29.8640837,5.2893305 27.8956413,7.17508473 27.8956413,9.513873 C27.8956413,9.513873 27.8900172,11.722414 27.8843931,13.8176965 C26.2084049,12.6964372 23.8069052,12.939943 22.4402437,14.7237646 L18.4021247,20.0072741 C18.2502734,20.2054765 18.1209186,20.4263306 17.9971879,20.6415218 C17.8678332,20.4263306 17.7441025,20.2054765 17.5922512,20.0072741 L13.5541322,14.7237646 C12.1705983,12.9172913 9.76347446,12.713426 8.10998282,13.8176965 C8.10435869,11.7167511 8.09873457,9.513873 8.09873457,9.513873 C8.09873457,7.17508473 6.13029214,5.2893305 3.77378535,5.44789242 C1.61974691,5.58946556 0,7.48654564 0,9.65544614 L0,20.4999487 C0,21.9326688 0.489298547,23.3427373 1.3779097,24.4639966 L4.67926886,28.6545615 C4.8479925,28.8697527 5.1123262,29 5.38228402,29 L6.29901578,29 C6.79393845,29 7.19887518,28.5922694 7.19887518,28.0939319 C7.19887518,27.6692125 7.05264802,27.2558189 6.79393845,26.9273692 L3.48695516,22.7651189 C2.97516013,22.1252083 2.69957819,21.3267358 2.69957819,20.4999487 L2.69957819,9.56483933 C2.69957819,8.90793996 3.13825965,8.30200692 3.77940947,8.18308549 C4.63990002,8.01319772 5.39915638,8.67576001 5.39915638,9.513873 C5.39915638,9.513873 5.41040462,15.2334279 5.41602875,17.0229124 C5.41602875,17.4532947 5.57350414,17.8610253 5.8547102,18.189475 L10.1571629,23.4333441 C11.1526324,24.6452102 13.0929542,23.2464676 12.06374,21.8363991 L9.27980003,18.042239 C8.82424621,17.4476318 8.93672864,16.59253 9.52726137,16.133833 C10.1346665,15.6581473 10.9782846,15.8053833 11.4225902,16.3830018 L15.4550851,21.6608484 C15.9387596,22.2950961 16.2030933,23.0709169 16.2030933,23.8693894 L16.2030933,28.088269 C16.2030933,28.5866064 16.60803,28.9943371 17.1029527,28.9943371 L18.9026715,28.9943371 C19.3975941,28.9943371 19.8025309,28.5866064 19.8025309,28.088269 L19.8025309,23.8750523 C19.8025309,23.0765798 20.0668646,22.300759 20.550539,21.6665113 L24.5830339,16.3886647 C25.0273395,15.8110463 25.8709577,15.6694731 26.4783628,16.139496 C27.0688955,16.5981929 27.1813779,17.4476318 26.7258241,18.0479019 L23.9418841,21.842062 C22.9070458,23.2521305 24.8529917,24.6508731 25.8484612,23.4390071 L30.1509139,18.195138 C30.43212,17.8666883 30.5839713,17.4589576 30.5895954,17.0285753 C30.5839713,15.2334279 30.5952195,9.513873 30.5952195,9.513873 C30.5952195,8.67576001 31.3488517,8.01319772 32.2149664,8.18308549 C32.8561162,8.30766985 33.2947977,8.90793996 33.2947977,9.56483933 L33.2947977,20.4999487 C33.2947977,21.3210729 33.0192157,22.1195454 32.5074207,22.759456 L29.2060616,26.9160434 C28.9417279,27.250156 28.8011248,27.6578866 28.8011248,28.0826061 C28.8011248,28.5809435 29.2060616,28.9886741 29.7009842,28.9886741 L30.617716,28.9886741 C30.8932979,28.9886741 31.1520075,28.8640898 31.3207311,28.6432357 L34.6220903,24.4526707 C35.5107015,23.3314115 36,21.9270059 36,20.4886228 L36,9.65544614 C35.9943759,7.48654564 34.374629,5.58946556 32.2205905,5.44789242 L32.2205905,5.44789242 Z" id="Shape"></path>
            </g>
        </g>
    </g>
</svg>