<?xml version="1.0" encoding="UTF-8"?>
<svg width="170px" height="30px" viewBox="0 0 170 30" version="1.1" xmlns="http://www.w3.org/2000/svg" xmlns:xlink="http://www.w3.org/1999/xlink">
    <!-- Generator: Sketch 53.2 (72643) - https://sketchapp.com -->
    <title>Group 11</title>
    <desc>Created with Sketch.</desc>
    <g id="Symbols" stroke="none" stroke-width="1" fill="none" fill-rule="evenodd">
        <g id="mobile-/-bar-/-*-Header---green-logo" transform="translate(-103.000000, -16.000000)" fill="#FFFFFF">
            <g id="Group-11" transform="translate(103.000000, 16.000000)">
                <g id="Group-8">
                    <path d="M20.4760792,9.27150677 C20.4760792,8.18848566 19.5952397,7.30730394 18.5120669,7.30730394 C17.6548011,7.30730394 16.9275781,7.85902368 16.6584554,8.62475719 L16.4356915,8.62475719 C16.1677467,7.85941636 15.4389529,7.30730394 14.582865,7.30730394 C13.4992997,7.30730394 12.6184602,8.18848566 12.6184602,9.27150677 C12.6184602,9.83697084 12.8608682,10.3454969 13.2447133,10.7044106 L13.2419631,10.7044106 L16.5437342,14.0045236 L19.7932525,10.7554583 C20.2108849,10.3957612 20.4760792,9.86446026 20.4760792,9.27150677 Z" id="Fill-4"></path>
                    <path d="M14.2186651,14.6595195 L8.55725067,14.6599122 C8.16987005,14.6548069 7.85517202,14.3390889 7.85517202,13.9503329 L7.85595817,10.698128 C7.86067235,10.3333245 8.00800271,10.0034703 8.24491031,9.76275559 L15.1655082,2.32964637 C15.694326,1.79913076 15.694326,0.940723909 15.1631505,0.409816006 C14.6335474,-0.120306922 13.7743164,-0.120306922 13.2423556,0.409030246 L4.50232601,8.35891115 C4.2591331,8.60433843 4.10787354,8.94165408 4.10787354,9.31431008 C4.10787354,9.37517526 4.10158745,14.3426242 4.10158745,14.3426242 C4.10158745,15.9035409 0.0278045495,19.5162325 0.0278045495,19.5162325 C0.0278045495,19.5162325 0.0199469306,23.2553674 0.0293761519,23.2557601 C0.166098722,24.2068387 0.976219353,24.9399807 1.96549346,24.9399807 C2.40276992,24.9399807 2.80272296,24.7927243 3.1288141,24.5512246 L3.13195731,24.564182 L7.72591419,20.5246445 C7.72591419,20.5246445 10.6355913,17.378855 12.6184602,17.378855 L12.6176749,17.378855 L14.2182722,17.3784627 L14.2182722,17.3768928 C14.9671029,17.3745378 15.5748901,16.7674469 15.5748901,16.017815 C15.5752826,15.2673938 14.9674954,14.6610911 14.2186651,14.6595195 Z" id="Fill-6"></path>
                    <path d="M18.8471948,14.6595195 L24.5086092,14.6599122 C24.8959898,14.6548069 25.2106887,14.3390889 25.2106887,13.9503329 L25.2099033,10.698128 C25.2051883,10.3333245 25.057858,10.0034703 24.8209519,9.76275559 L17.9003517,2.33003867 C17.3715339,1.79952345 17.3715339,0.941116593 17.9027094,0.410208297 C18.4323125,-0.119914631 19.2915435,-0.119914631 19.8235043,0.40942293 L28.5635331,8.35891115 C28.8067276,8.60433843 28.9579848,8.94165408 28.9579848,9.31431008 C28.9579848,9.37517526 28.9642705,14.3426242 28.9642705,14.3426242 C28.9642705,15.9035409 33.0380542,19.5162325 33.0380542,19.5162325 C33.0380542,19.5162325 33.0459106,23.2553674 33.0364835,23.2557601 C32.8997613,24.2068387 32.0896392,24.9399807 31.1003658,24.9399807 C30.6630897,24.9399807 30.2631376,24.7927243 29.9370457,24.5512246 L29.9339014,24.564182 L25.3399441,20.5246445 C25.3399441,20.5246445 22.4302686,17.378855 20.4473981,17.378855 L20.4481835,17.378855 L18.8475861,17.3784627 L18.8475861,17.3768928 C18.0987558,17.3745378 17.4909686,16.7674469 17.4909686,16.017815 C17.4905773,15.2673938 18.0983645,14.6610911 18.8471948,14.6595195 Z" id="Fill-7"></path>
                </g>
                <path d="M53.7317911,22.0832317 L53.7317911,13.5506773 C53.7317911,10.8627676 51.5428566,9.0499889 48.8535948,9.0499889 C46.1956034,9.0499889 44.006669,10.8627676 44.006669,13.5506773 L44.006669,22.0832317 L44.006669,22.176996 C44.006669,22.2395072 43.9753985,22.2707588 43.9753985,22.3020152 C43.9441282,22.3645263 43.9441282,22.3957779 43.9128577,22.4270343 C43.8190462,22.6145646 43.6626936,22.7395837 43.4438003,22.8020917 C43.4438003,22.8020917 43.41253,22.8333465 43.3812595,22.8333465 L43.3187185,22.8333465 L43.2249072,22.8333465 C43.0060136,22.8333465 42.7871204,22.7395837 42.6307679,22.5833082 C42.5682269,22.4895454 42.5369563,22.4270343 42.5056858,22.3332699 C42.4744153,22.2395072 42.4744153,22.176996 42.4744153,22.0832317 L42.4744153,13.5506773 L42.4744153,13.3006406 L42.4744153,1.70511488 C42.4744153,1.29880238 42.8183908,0.955000855 43.2249072,0.955000855 C43.6626939,0.955000855 44.0066695,1.29880394 44.0066695,1.70511488 L44.0066695,9.76884892 C45.1636776,8.39363828 46.9148249,7.51850372 48.8535948,7.51850372 C52.3871606,7.51850372 55.2640459,10.0188869 55.2640459,13.5506773 L55.2640459,22.0832317 C55.2640459,22.4895454 54.92007,22.8333465 54.4822836,22.8333465 C54.0757669,22.8333465 53.7317926,22.4895454 53.7317926,22.0832317 L53.7317911,22.0832317 Z M70.964959,22.8333465 C66.8372544,22.8333465 63.5225816,19.3953187 63.5225816,15.2071777 C63.5225816,10.956528 66.8372544,7.51850075 70.964959,7.51850075 C74.9050408,7.51850075 78.0320898,10.6439791 78.3447931,14.64459 L78.3447931,14.6758464 L78.3447931,14.7696092 C78.3447931,15.1759213 78.0008193,15.457216 77.5943029,15.457216 L65.0235667,15.457216 C65.1799198,18.8014763 67.8066411,21.3331153 70.964959,21.3331153 C72.9975393,21.3331153 74.8737703,20.2704527 75.9056965,18.551438 C76.1245883,18.1763821 76.5936472,18.113871 76.9063506,18.3013997 C77.2503244,18.551438 77.3754064,18.9890065 77.1565145,19.3640639 C75.8431539,21.4581344 73.5604097,22.8333434 70.964959,22.8333434 L70.964959,22.8333465 Z M70.964959,9.01873177 C68.088074,9.01873177 65.6802442,11.081547 65.1173774,13.9882427 L76.7187292,13.9882427 C76.2184014,11.1128026 73.7793047,9.01873177 70.964959,9.01873177 Z M86.8534919,22.0832317 L86.8534919,1.70511348 C86.8534919,1.29880098 87.1974673,0.954997886 87.6039836,0.954997886 C88.0417721,0.954997886 88.3857459,1.29880098 88.3857459,1.70511191 L88.3857459,22.0832317 C88.3857459,22.4895454 88.0417721,22.8333465 87.6039836,22.8333465 C87.1974673,22.8333465 86.8534919,22.4895454 86.8534919,22.0832317 Z M97.3947756,28.4904639 L97.3947756,15.4259659 L97.3947756,15.1134165 L97.3947756,14.8008686 L97.3947756,8.26861774 C97.3947756,7.86230524 97.7387526,7.51850372 98.1452674,7.51850372 C98.5830511,7.51850372 98.9270296,7.86230665 98.9270296,8.26861774 L98.9270296,10.4877075 C100.24039,8.70618425 102.366784,7.51850372 104.743342,7.51850372 C108.871045,7.51850372 112.154452,10.9252756 112.154452,15.1134165 C112.154452,19.2703027 108.871052,22.7395853 104.743349,22.7395853 C102.36679,22.7395853 100.240396,21.5519035 98.9270343,19.739126 L98.9270343,28.490467 C98.9270343,28.8967792 98.5830574,29.2405803 98.1452721,29.2405803 C97.7387588,29.2405803 97.3947819,28.8967792 97.3947819,28.490467 L97.3947756,28.4904639 Z M98.9270296,14.8633766 L98.9270296,15.1134133 C98.9270296,18.48893 101.585021,21.2080962 104.743342,21.2393525 C107.99547,21.2080962 110.622191,18.48893 110.622191,15.1134133 C110.622191,11.7378983 107.99547,9.04998593 104.743342,9.04998593 C101.647564,9.04998593 99.0521131,11.6128791 98.9270296,14.8633766 Z M127.355031,22.8333465 C123.227326,22.8333465 119.912655,19.3953187 119.912655,15.2071777 C119.912655,10.956528 123.227326,7.51850075 127.355037,7.51850075 C131.295118,7.51850075 134.422167,10.6439791 134.734874,14.64459 L134.734874,14.6758464 L134.734874,14.7696092 C134.734874,15.1759213 134.390897,15.457216 133.984382,15.457216 L121.413644,15.457216 C121.569995,18.8014763 124.196716,21.3331153 127.355037,21.3331153 C129.387617,21.3331153 131.263848,20.2704527 132.295773,18.551438 C132.514666,18.1763821 132.983722,18.113871 133.296428,18.3013997 C133.640405,18.551438 133.765484,18.9890065 133.546592,19.3640639 C132.233232,21.4581344 129.950486,22.8333434 127.355037,22.8333434 L127.355031,22.8333465 Z M127.355031,9.01873177 C124.478145,9.01873177 122.070316,11.081547 121.507446,13.9882427 L133.108794,13.9882427 C132.608468,11.1128026 130.169367,9.01873177 127.355024,9.01873177 L127.355031,9.01873177 Z M143.024671,22.0832317 L143.024671,8.29987331 C143.024671,7.86230665 143.368648,7.54975912 143.806434,7.54975912 C144.181676,7.54975912 144.525653,7.86230665 144.525653,8.29987331 L144.525653,11.6753903 C144.588196,11.5503711 144.650739,11.4253517 144.744547,11.3003325 C145.901552,9.4875554 147.934138,7.54975912 150.87356,7.54975912 C151.280079,7.54975912 151.624056,7.86230665 151.624056,8.29987331 C151.624056,8.70618581 151.280079,9.04998734 150.87356,9.04998734 C148.87225,9.04998734 147.496341,10.17516 146.433144,11.5503711 C145.401212,12.92558 144.807077,14.4883192 144.588185,15.1134165 C144.525642,15.2384356 144.525642,15.3009467 144.525642,15.3634547 L144.525642,22.0832317 C144.525642,22.5208002 144.181664,22.8333465 143.806423,22.8333465 C143.368637,22.8333465 143.024661,22.5207971 143.024661,22.0832317 L143.024671,22.0832317 Z M158.756861,20.6455116 C158.444161,20.3642186 158.412884,19.9579064 158.663054,19.6453601 C158.913223,19.3328107 159.382274,19.2703027 159.726251,19.5515973 C160.789448,20.3329669 162.478057,21.3331184 164.416825,21.3331184 C165.605106,21.3331184 166.637026,20.958061 167.324982,20.3954749 C168.075478,19.8953984 168.481985,19.2077916 168.481985,18.5201863 C168.450721,17.8013279 168.169287,17.3012482 167.387524,16.6448977 C166.730846,16.1448212 165.636372,15.7697654 164.13539,15.5197271 L164.072848,15.4884707 C162.696951,15.2384325 161.477391,14.9258846 160.601822,14.300789 C159.632432,13.7382013 158.944489,12.7380498 158.944489,11.550368 C158.944489,10.3314314 159.632443,9.26876832 160.601822,8.5499083 C161.508667,7.92481325 162.790758,7.51850075 164.354282,7.51850075 C166.324326,7.51850075 167.731501,8.42488932 168.91977,9.17500335 C169.263747,9.42504146 169.357556,9.89386353 169.138664,10.2376665 C168.91977,10.581468 168.450708,10.6752345 168.106731,10.456449 C166.980992,9.70633498 165.855253,8.92496539 164.35427,8.92496539 C163.103445,8.92496539 162.102791,9.26876832 161.446114,9.80009996 C160.820701,10.300176 160.476724,10.9252726 160.476724,11.550368 C160.476724,12.1754621 160.758159,12.6130306 161.352295,13.0818508 C162.040249,13.5506726 163.072169,13.9257316 164.479344,14.144515 L164.541886,14.144515 C166.011602,14.363297 167.199873,14.8008655 168.26307,15.3947048 C169.263724,16.0510553 169.982944,17.2387371 169.982944,18.5201832 C169.982944,19.8016293 169.263724,20.8330356 168.231793,21.6144052 C167.168595,22.3957748 165.917771,22.8333434 164.416789,22.8333434 C161.946417,22.8020886 160.00765,21.6456616 158.756825,20.6455085 L158.756861,20.6455116 Z" id="Fill-9"></path>
            </g>
        </g>
    </g>
</svg>