<?xml version="1.0" encoding="UTF-8"?>
<svg width="27px" height="32px" viewBox="0 0 27 32" version="1.1" xmlns="http://www.w3.org/2000/svg" xmlns:xlink="http://www.w3.org/1999/xlink">
    <!-- Generator: Sketch 53.2 (72643) - https://sketchapp.com -->
    <title>prescription-solid copy 7</title>
    <desc>Created with Sketch.</desc>
    <g id="Mobile" stroke="none" stroke-width="1" fill="none" fill-rule="evenodd">
        <g id="Client-/-services" transform="translate(-39.000000, -682.000000)" fill="#FFFFFF" fill-rule="nonzero">
            <g id="prescription-solid-copy-7" transform="translate(39.000000, 682.000000)">
                <path d="M21.18193,22.8567602 L26.6704166,17.2811393 C27.1098611,16.8347182 27.1098611,16.1111589 26.6704166,15.6647378 L25.0792758,14.0483362 C24.6398313,13.6019151 23.9275795,13.6019151 23.488135,14.0483362 L17.9996484,19.6239572 L12.0963262,13.6269147 C15.4199332,13.199779 17.9996484,10.3491125 17.9996484,6.85702806 C17.9996484,3.06994861 14.9776762,0 11.2497803,0 L1.12497803,0 C0.503427667,0 0,0.51142001 0,1.14283801 L0,19.4282462 C0,20.0596642 0.503427667,20.5710842 1.12497803,20.5710842 L3.37493408,20.5710842 C3.99648444,20.5710842 4.49991211,20.0596642 4.49991211,19.4282462 L4.49991211,13.7140561 L5.81824574,13.7140561 L14.81807,22.8567602 L9.32958341,28.4323812 C8.89013886,28.8788023 8.89013886,29.6023616 9.32958341,30.0487827 L10.9207242,31.6651842 C11.3601687,32.1116053 12.0724205,32.1116053 12.511865,31.6651842 L17.9996484,26.088849 L23.488135,31.6644699 C23.9275795,32.110891 24.6398313,32.110891 25.0792758,31.6644699 L26.6704166,30.0480684 C27.1098611,29.6016473 27.1098611,28.878088 26.6704166,28.4316669 L21.18193,22.8567602 Z M4.49991211,4.57135204 L11.2497803,4.57135204 C12.4900686,4.57135204 13.4997363,5.59704916 13.4997363,6.85702806 C13.4997363,8.11700697 12.4900686,9.14270408 11.2497803,9.14270408 L4.49991211,9.14270408 L4.49991211,4.57135204 Z" id="Shape"></path>
            </g>
        </g>
    </g>
</svg>