<?xml version="1.0" encoding="UTF-8"?>
<svg width="33px" height="33px" viewBox="0 0 33 33" version="1.1" xmlns="http://www.w3.org/2000/svg" xmlns:xlink="http://www.w3.org/1999/xlink">
    <!-- Generator: Sketch 53.2 (72643) - https://sketchapp.com -->
    <title>Shape</title>
    <desc>Created with Sketch.</desc>
    <g id="Mobile" stroke="none" stroke-width="1" fill="none" fill-rule="evenodd">
        <g id="Client-/-services" transform="translate(-36.000000, -525.000000)" fill="#12B3B3" fill-rule="nonzero">
            <g id="wheelchair-solid-copy" transform="translate(36.000000, 525.000000)">
                <path d="M31.9752613,24.8575716 L32.892236,26.7049917 C33.1454723,27.2151382 32.9371598,27.8339527 32.4270133,28.0871891 L28.2075892,30.2067947 C27.173181,30.7202928 25.9158938,30.2837517 25.4239231,29.2364528 L21.3777491,20.624999 L12.3750006,20.624999 C11.3485845,20.624999 10.4784028,19.8702529 10.33319,18.8541493 C8.14900235,3.5647711 8.27449259,4.51455242 8.2500004,4.12499771 C8.2500004,1.7816108 10.2040903,-0.10538349 12.5717115,0.00457354963 C14.7161316,0.104153636 16.441993,1.86759128 16.4985184,4.0136227 C16.5544637,6.13625763 15.0062996,7.90807418 12.978862,8.20558983 L13.2798581,10.3125627 L21.656251,10.3125627 C22.2258233,10.3125627 22.6875011,10.7742404 22.6875011,11.3438127 L22.6875011,13.4063129 C22.6875011,13.9758852 22.2258233,14.437563 21.656251,14.437563 L13.869153,14.437563 L14.1638327,16.5000631 L22.6875011,16.5000631 C23.486876,16.5000739 24.2142584,16.9619901 24.5541926,17.6854851 L28.2612143,25.5749994 L30.5929995,24.3923489 C31.103146,24.1391126 31.722025,24.3474251 31.9752613,24.8575716 Z M20.0679971,22.6874992 L18.4885087,22.6874992 C17.9865477,26.1811166 14.9740085,28.8749997 11.3437505,28.8749997 C7.36331871,28.8749997 4.1250002,25.6366811 4.1250002,21.6562491 C4.1250002,18.9811219 5.58769949,16.6412155 7.75525819,15.3942408 C7.51600817,13.7207153 7.31414098,12.309514 7.14372691,11.1188713 C2.96200796,12.7916234 0,16.8843327 0,21.6562491 C0,27.911232 5.08876782,33 11.3437505,33 C15.9759969,33 19.9679658,30.2086638 21.727794,26.2200463 L20.0679971,22.6874992 Z" id="Shape"></path>
            </g>
        </g>
    </g>
</svg>